<?xml version="1.0" standalone="no"?>
<!DOCTYPE svg PUBLIC "-//W3C//DTD SVG 20010904//EN"
 "http://www.w3.org/TR/2001/REC-SVG-20010904/DTD/svg10.dtd">
<svg version="1.0" xmlns="http://www.w3.org/2000/svg"
viewBox="0 85 860.000000 300.000000"
 preserveAspectRatio="xMidYMid meet">

<g transform="translate(0.000000,500.000000) scale(0.100000,-0.100000)"
fill="#000000" stroke="none">
<path d="M190 2710 l0 -770 450 0 450 0 0 95 0 95 -345 0 -345 0 0 275 0 275
245 0 245 0 0 90 0 90 -245 0 -245 0 0 215 0 215 345 0 345 0 0 95 0 95 -450
0 -450 0 0 -770z"/>
<path d="M8680 3223 c-38 -14 -60 -47 -60 -89 0 -85 100 -126 161 -65 32 33
37 67 14 110 -19 38 -75 59 -115 44z m73 -27 c9 -7 22 -27 28 -45 21 -60 -43
-116 -100 -86 -32 16 -41 33 -41 75 0 52 71 88 113 56z"/>
<path d="M8680 3130 c0 -32 4 -49 10 -45 6 3 10 13 10 21 0 8 7 14 15 14 8 0
15 -7 15 -15 0 -8 4 -15 9 -15 5 0 9 19 8 43 -2 40 -4 42 -34 45 l-33 3 0 -51z
m48 22 c2 -7 -3 -12 -12 -12 -9 0 -16 7 -16 16 0 17 22 14 28 -4z"/>
<path d="M1763 3061 c-66 -23 -130 -67 -157 -108 -12 -18 -23 -33 -26 -33 -3
0 -18 32 -34 70 l-30 70 -68 0 -68 0 0 -560 0 -560 100 0 100 0 0 418 c0 476
-7 439 92 502 143 93 315 67 369 -55 29 -66 39 -201 39 -547 l0 -318 96 0 95
0 -3 423 c-3 411 -4 424 -26 486 -13 35 -36 83 -52 107 -34 48 -111 100 -173
114 -69 16 -196 11 -254 -9z"/>
<path d="M5032 3064 c-97 -26 -160 -73 -198 -150 -29 -59 -27 -194 5 -253 41
-79 106 -130 253 -203 153 -75 210 -122 227 -183 35 -134 -86 -224 -246 -182
-37 10 -98 35 -135 57 -61 35 -70 37 -75 22 -3 -9 -19 -50 -34 -91 -16 -41
-28 -76 -26 -77 1 -1 26 -13 54 -28 76 -38 174 -58 283 -57 245 1 390 119 390
317 0 164 -76 254 -300 354 -174 77 -210 113 -210 205 0 39 5 52 30 75 30 28
95 50 148 50 45 0 123 -27 176 -60 26 -17 50 -30 51 -28 2 2 13 36 25 77 12
40 24 79 26 86 6 13 -71 44 -172 70 -76 19 -201 18 -272 -1z"/>
<path d="M6763 3065 c-77 -21 -130 -51 -189 -107 -117 -111 -164 -226 -171
-423 -6 -158 10 -246 64 -355 84 -171 234 -260 438 -260 327 0 520 239 502
625 -13 288 -133 460 -362 521 -65 18 -215 17 -282 -1z m232 -156 c92 -25 161
-103 188 -214 25 -97 30 -220 14 -311 -35 -195 -135 -303 -282 -304 -210 0
-305 130 -307 420 0 136 17 210 67 290 30 47 92 100 136 116 43 16 132 17 184
3z"/>
<path d="M8063 3062 c-67 -24 -130 -68 -157 -109 -12 -18 -23 -33 -26 -33 -3
0 -18 32 -34 70 l-28 70 -69 0 -69 0 0 -560 0 -560 100 0 100 0 0 422 0 421
39 37 c22 21 66 51 97 66 109 53 248 32 304 -46 45 -64 50 -110 50 -517 l0
-383 101 0 100 0 -4 418 c-4 437 -6 463 -52 552 -33 65 -65 97 -128 131 -57
30 -70 33 -167 36 -83 3 -116 0 -157 -15z"/>
<path d="M2470 3068 c0 -2 108 -259 239 -573 235 -559 240 -570 267 -570 28 0
33 12 271 565 133 311 242 568 243 573 0 4 -45 7 -99 7 l-99 0 -60 -152 c-32
-84 -101 -262 -152 -396 -52 -133 -97 -239 -100 -235 -4 5 -69 175 -145 378
-75 204 -141 378 -146 388 -8 14 -25 17 -114 17 -58 0 -105 -1 -105 -2z"/>
<path d="M3772 2703 c238 -611 269 -697 275 -773 7 -85 1 -110 -40 -156 -33
-38 -136 -94 -173 -94 -12 0 -36 -3 -53 -6 l-31 -6 0 -84 0 -84 38 0 c131 0
309 93 371 194 16 26 462 1236 495 1344 7 22 6 22 -91 22 l-99 0 -144 -417
c-78 -230 -146 -425 -151 -433 -6 -12 -9 -12 -16 5 -4 11 -77 205 -163 430
l-155 410 -102 3 -101 3 140 -358z"/>
<path d="M5740 2980 l0 -80 80 0 80 0 0 -480 0 -480 95 0 95 0 0 560 0 560
-175 0 -175 0 0 -80z"/>
</g>
</svg>
