<?xml version="1.0" ?><svg viewBox="0 0 22.575 22.587" xmlns="http://www.w3.org/2000/svg"><g data-name="Layer 2" id="Layer_2"><g data-name="Layer 1" id="Layer_1-2"><path d="M18.322,17.028l-.655-.379a6.459,6.459,0,0,0,.231-.857h.755c1-.036.683-1.25.73-1.893a.731.731,0,0,0-.73-.73H17.9a6.459,6.459,0,0,0-.231-.857l.656-.379a.731.731,0,0,0,.266-1c-.357-.529-.7-1.746-1.578-1.274l-.656.379a6.768,6.768,0,0,0-.628-.628l.379-.656c.472-.874-.746-1.221-1.274-1.578a.73.73,0,0,0-1,.267l-.378.654a7.011,7.011,0,0,0-.858-.23V7.115c-.036-1-1.25-.683-1.893-.73a.731.731,0,0,0-.729.73V7.87a6.979,6.979,0,0,0-.859.23L8.74,7.446a.731.731,0,0,0-1-.267c-.529.357-1.747.7-1.275,1.578l.379.656a6.636,6.636,0,0,0-.627.628l-.656-.379c-.874-.473-1.222.746-1.579,1.274a.731.731,0,0,0,.267,1l.655.379a6.7,6.7,0,0,0-.231.857H3.922c-1,.036-.682,1.25-.729,1.893a.731.731,0,0,0,.729.73h.755a6.659,6.659,0,0,0,.231.857l-.655.379c-.844.523.035,1.428.315,2a.73.73,0,0,0,1,.266l.656-.378a6.626,6.626,0,0,0,.627.627l-.379.657a.73.73,0,0,0,.268,1c.568.279,1.49,1.159,2,.315l.378-.655a6.9,6.9,0,0,0,.859.231v.755c.035,1,1.249.682,1.892.729a.73.73,0,0,0,.73-.729v-.755a6.841,6.841,0,0,0,.858-.231l.378.655c.513.844,1.437-.037,2-.315a.73.73,0,0,0,.267-1l-.379-.657a6.757,6.757,0,0,0,.628-.627l.656.378a.73.73,0,0,0,1-.266C18.288,18.456,19.167,17.551,18.322,17.028ZM18,17.682l-.582,1.008a.048.048,0,0,1-.062.016l-.905-.522a.341.341,0,0,0-.438.082,6.1,6.1,0,0,1-.936.937c-.367.278.2.831.44,1.343a.047.047,0,0,1-.017.062l-1.008.581a.05.05,0,0,1-.062-.016l-.521-.9a.342.342,0,0,0-.421-.148,5.953,5.953,0,0,1-1.279.344.342.342,0,0,0-.291.338v1.043a.047.047,0,0,1-.046.046H10.706a.046.046,0,0,1-.045-.046V20.8a.343.343,0,0,0-.291-.338,5.961,5.961,0,0,1-1.28-.344c-.424-.181-.622.588-.942,1.052a.051.051,0,0,1-.062.016l-1.007-.581a.045.045,0,0,1-.017-.062l.522-.905A.344.344,0,0,0,7.5,19.2a6.06,6.06,0,0,1-.937-.937c-.279-.368-.829.2-1.342.44a.046.046,0,0,1-.063-.016l-.581-1.008A.045.045,0,0,1,4.6,17.62l.9-.522a.341.341,0,0,0,.147-.42A6.017,6.017,0,0,1,5.3,15.4c-.059-.46-.817-.244-1.381-.29a.046.046,0,0,1-.045-.046V13.9a.046.046,0,0,1,.045-.046c.562-.044,1.326.167,1.381-.29a6,6,0,0,1,.343-1.28.342.342,0,0,0-.147-.421l-.9-.521a.045.045,0,0,1-.017-.062l.581-1.008.062-.016.9.522a.341.341,0,0,0,.438-.083A6.1,6.1,0,0,1,7.5,9.757c.368-.274-.2-.834-.44-1.342a.051.051,0,0,1,.016-.062l1.007-.582a.047.047,0,0,1,.063.017l.522.9a.34.34,0,0,0,.42.148,6.015,6.015,0,0,1,1.28-.344c.458-.055.246-.819.291-1.38a.046.046,0,0,1,.045-.046h1.163a.047.047,0,0,1,.046.046V8.157a.342.342,0,0,0,.29.338,6.015,6.015,0,0,1,1.28.344c.425.18.616-.577.942-1.051a.046.046,0,0,1,.063-.017l1.007.582.017.062-.522.9a.341.341,0,0,0,.082.438,6.156,6.156,0,0,1,.937.938c.274.367.832-.2,1.342-.44a.049.049,0,0,1,.062.016L18,11.279a.046.046,0,0,1-.017.062l-.9.521a.343.343,0,0,0-.148.421,6.047,6.047,0,0,1,.344,1.28c.055.457.819.246,1.38.29a.046.046,0,0,1,.046.046v1.163a.046.046,0,0,1-.046.046H17.611a.341.341,0,0,0-.338.29,6.047,6.047,0,0,1-.344,1.28.341.341,0,0,0,.148.42l.9.522A.046.046,0,0,1,18,17.682ZM11.288,9.806c-6.178.2-6.177,9.154,0,9.349C17.466,18.959,17.464,10,11.288,9.806Zm0,8.665a3.991,3.991,0,0,1,0-7.981A3.991,3.991,0,0,1,11.288,18.471ZM22.234,0H.342A.342.342,0,0,0,0,.342v18.7a.342.342,0,0,0,.342.342H3.078a.342.342,0,0,0,0-.684H.684V3.877H21.891V18.7H19.5a.342.342,0,0,0,0,.684h2.736a.342.342,0,0,0,.341-.342V.342A.342.342,0,0,0,22.234,0Zm-.343,3.193H.684V.684H21.891ZM19.8,2.181c-.322-.311.181-.8.484-.483S20.113,2.5,19.8,2.181Zm-1.924-.242a.342.342,0,0,1,.683,0A.342.342,0,0,1,17.878,1.939Zm-1.724.242c-.319-.311.171-.789.483-.488S16.466,2.5,16.154,2.181ZM12.3,12.3l-1.369,4.56a.342.342,0,0,1-.655-.2l1.368-4.56A.343.343,0,0,1,12.3,12.3ZM9.771,13.315l-.786,1.179.786,1.178a.342.342,0,1,1-.569.38L8.29,14.683a.34.34,0,0,1,0-.379L9.2,12.936A.342.342,0,0,1,9.771,13.315Zm3.6-.379.912,1.368a.34.34,0,0,1,0,.379l-.912,1.369a.342.342,0,0,1-.569-.38l.785-1.178-.785-1.179A.342.342,0,0,1,13.374,12.936Z" id="development"/></g></g></svg>