<?xml version="1.0" encoding="utf-8"?>
<!-- Generator: Adobe Illustrator 26.4.1, SVG Export Plug-In . SVG Version: 6.00 Build 0)  -->
<svg version="1.0" id="katman_1" xmlns="http://www.w3.org/2000/svg" xmlns:xlink="http://www.w3.org/1999/xlink"
	 viewBox="150 130 530.89 350.28" style="" xml:space="preserve">
<style type="text/css">
	.st0{fill:#3C2D87;}
</style>
<path class="st0" d="M79.72,265.81h14.4l1.26-21.6h19.44v21.6h20.7v15.84h-20.7v59.77c0,2.89,1.62,3.6,3.24,3.6h17.46v17.1h-24.3
	c-10.8,0-17.1-6.84-17.1-20.88v-59.62h-14.4L79.72,265.81L79.72,265.81z M191.67,263.46c26.64,0,43.74,20.16,43.74,47.72v11.52
	h-71.46c1.62,13.68,14.4,23.22,30.42,23.22c12.05,0,20.7-6.3,26.99-12.78l12.25,12.2c-10.44,13.14-25.19,19.43-40.68,19.43
	c-25.19,0-49.31-18.18-49.31-50.04c0-28.62,21.24-51.3,48.06-51.3L191.67,263.46L191.67,263.46z M215.25,306.47
	c-0.36-13.5-8.64-24.1-24.3-24.1c-13.49,0-25.38,9.72-26.99,24.1H215.25z M249.81,229.79h20.7v111.59c0,2.52,0.18,3.61,3.24,3.61
	h12.96v17.09h-19.97c-13.14,0-16.92-8.45-16.92-20.51C249.81,341.57,249.81,229.79,249.81,229.79z M341.06,263.44
	c26.64,0,43.74,20.16,43.74,47.72v11.53h-71.46c1.62,13.67,14.4,23.21,30.42,23.21c12.05,0,20.7-6.3,26.99-12.78L383,345.34
	c-10.44,13.14-25.19,19.43-40.68,19.43c-25.19,0-49.31-18.18-49.31-50.04C293,286.12,314.24,263.44,341.06,263.44z M364.64,306.47
	c-0.36-13.5-8.64-24.1-24.3-24.1c-13.49,0-25.38,9.72-26.99,24.1H364.64z M448.15,263.08c23.4,0,36.54,14.03,42.66,30.06
	l-17.28,7.37c-5.4-12.24-14.03-18.54-25.54-18.54c-16.2,0-27.54,12.78-27.54,32.04c0,19.08,11.7,32.03,27.54,32.03
	c11.69,0,20.34-5.78,27.9-16.39l14.4,9.72c-9.16,15.48-21.24,25.38-43.55,25.38c-27.54,0-46.98-21.42-46.98-50.22
	c0-28.98,19.62-51.48,48.41-51.48L448.15,263.08z M501.08,312.38h19.98v1.98c0,17.84,14.76,30.24,30.6,30.24
	c15.65,0,29.16-12.05,29.16-29.71v-2.33h20.33c0,1.08,0.18,3.06,0.18,4.5c0,28.07-23.93,47.7-50.4,47.7
	c-26.27,0-50.04-20.16-50.04-48.6C500.87,314.89,500.94,313.64,501.08,312.38L501.08,312.38z M551.12,263.07
	c24.3,0,42.83,15.66,48.77,37.97H579.2c-4.51-11.16-14.95-18.18-28.08-18.18c-13.14,0-23.4,7.38-28.07,18.18h-20.52
	c2.75-10.82,9.01-20.42,17.8-27.29C529.12,266.87,539.95,263.12,551.12,263.07L551.12,263.07z M616.62,265.77h18.9l0.18,18.18h0.9
	c5.76-12.96,15.84-20.88,30.6-20.88c14.57,0,24.65,8.28,28.79,23.4h1.08c5.58-14.94,16.02-23.4,32.04-23.4
	c21.96,0,32.58,16.91,32.58,38.52v60.49H741v-57.95c0-12.95-4.67-22.85-18.17-22.85c-15.48,0-23.59,13.32-23.59,26.99v53.82h-20.7
	v-57.95c0-15.3-6.11-22.85-18-22.85c-15.84,0-23.23,12.96-23.23,26.99v53.82h-20.7L616.62,265.77L616.62,265.77z"/>
</svg>
