<svg width="82" height="82" viewBox="0 0 82 82" fill="none" xmlns="http://www.w3.org/2000/svg">
<path d="M41 73.0312C58.6904 73.0312 73.0312 58.6904 73.0312 41C73.0312 23.3096 58.6904 8.96875 41 8.96875C23.3096 8.96875 8.96875 23.3096 8.96875 41C8.96875 58.6904 23.3096 73.0312 41 73.0312Z" fill="#F0DB4F"/>
<path d="M31.0063 28.5718H36.5797V44.2671C36.5797 51.314 33.1844 53.8124 27.8031 53.8124C26.4578 53.8124 24.7922 53.6202 23.7031 53.2358L24.3438 48.6874C25.1125 48.9437 26.1375 49.1358 27.2266 49.1358C29.5969 49.1358 31.0703 48.0468 31.0703 44.2671L31.0063 28.5718Z" fill="#323330"/>
<path d="M41.5125 47.6625C42.9859 48.4313 45.3562 49.2 47.7266 49.2C50.2891 49.2 51.6344 48.1109 51.6344 46.4453C51.6344 44.9078 50.4812 44.0109 47.4703 42.9859C43.3703 41.5125 40.6156 39.2063 40.6156 35.5547C40.6156 31.3906 44.2031 28.1875 50.0328 28.1875C52.8516 28.1875 54.9016 28.7641 56.375 29.4688L55.0938 33.9531C54.1328 33.5047 52.3391 32.8 49.9688 32.8C47.5344 32.8 46.3813 33.9531 46.3813 35.1703C46.3813 36.7719 47.7266 37.4766 50.9937 38.6938C55.35 40.2953 57.4 42.6016 57.4 46.125C57.4 50.2891 54.2609 53.8125 47.4062 53.8125C44.5875 53.8125 41.7688 53.0437 40.3594 52.275L41.5125 47.6625Z" fill="#323330"/>
</svg>
